<?xml version="1.0" encoding="UTF-8" standalone="no"?>
<svg
   xmlns:dc="http://purl.org/dc/elements/1.1/"
   xmlns:cc="http://creativecommons.org/ns#"
   xmlns:rdf="http://www.w3.org/1999/02/22-rdf-syntax-ns#"
   xmlns:svg="http://www.w3.org/2000/svg"
   xmlns="http://www.w3.org/2000/svg"
   xmlns:sodipodi="http://sodipodi.sourceforge.net/DTD/sodipodi-0.dtd"
   xmlns:inkscape="http://www.inkscape.org/namespaces/inkscape"
   id="svg2"
   xml:space="preserve"
   enable-background="new 0 0 124 22"
   viewBox="0 0 125 23"
   height="23"
   width="125"
   y="0px"
   x="0px"
   version="1.1"
   inkscape:version="0.91 r13725"
   sodipodi:docname="oreilly-logo-norm.svg"><sodipodi:namedview
     pagecolor="#ffffff"
     bordercolor="#666666"
     borderopacity="1"
     objecttolerance="10"
     gridtolerance="10"
     guidetolerance="10"
     inkscape:pageopacity="0"
     inkscape:pageshadow="2"
     inkscape:window-width="1427"
     inkscape:window-height="1834"
     id="namedview16"
     showgrid="false"
     fit-margin-top="0.5"
     fit-margin-left="0.5"
     fit-margin-right="0.5"
     fit-margin-bottom="0.5"
     inkscape:zoom="4.3585544"
     inkscape:cx="77.794686"
     inkscape:cy="25.341787"
     inkscape:window-x="2339"
     inkscape:window-y="122"
     inkscape:window-maximized="0"
     inkscape:current-layer="svg2" /><metadata
     id="metadata28"><rdf:RDF><cc:Work
         rdf:about=""><dc:format>image/svg+xml</dc:format><dc:type
           rdf:resource="http://purl.org/dc/dcmitype/StillImage" /><dc:title></dc:title></cc:Work></rdf:RDF></metadata><defs
     id="defs4" /><polygon
     transform="translate(0.5,0.5)"
     style="fill:#000000"
     id="polygon6"
     points="46.011,0.939 46.011,21.479 59.612,21.479 59.612,18.054 49.271,18.054 49.271,12.926 59.114,12.926 59.114,9.501 49.271,9.501 49.271,4.363 59.612,4.363 59.612,4.363 59.612,0.939 " /><polygon
     transform="translate(0.5,0.5)"
     style="fill:#000000"
     id="polygon8"
     points="69.705,0.939 72.967,0.939 72.967,18.054 82.375,18.054 82.375,21.479 69.705,21.479 69.705,21.479 " /><polygon
     transform="translate(0.5,0.5)"
     style="fill:#000000"
     id="polygon10"
     points="85.031,0.939 88.292,0.939 88.292,18.054 97.7,18.054 97.7,21.479 85.031,21.479 85.031,21.479 " /><polygon
     transform="translate(0.5,0.5)"
     style="fill:#000000"
     id="polygon12"
     points="63.036,0.939 66.294,0.939 66.294,21.479 63.036,21.479 63.036,0.939 " /><path
     style="fill:#000000"
     id="path14"
     d="M 0.5,11.802 C 0.5,5.895 5.063,1.109 10.693,1.105 16.321,1.109 20.881,5.894 20.881,11.801 20.881,17.71 16.321,22.5 10.693,22.5 5.063,22.5 0.5,17.71 0.5,11.802 M 5.791,6.656 c -1.254,1.326 -2.029,3.137 -2.029,5.146 0,2.015 0.775,3.82 2.029,5.144 1.262,1.322 2.982,2.135 4.903,2.135 1.918,0 3.641,-0.812 4.899,-2.135 1.256,-1.323 2.029,-3.129 2.029,-5.144 0,-2.009 -0.773,-3.819 -2.029,-5.146 -1.258,-1.314 -2.98,-2.124 -4.899,-2.124 -1.922,0 -3.641,0.81 -4.903,2.124"
     inkscape:connector-curvature="0" /><path
     style="fill:#000000"
     id="path16"
     d="M 39.168,13.168 C 41.522,12.425 43.236,10.146 43.241,7.43 43.236,4.124 40.684,1.44 37.532,1.44 l -9.832,0 0,20.539 3.262,0 0,-8.553 4.546,0 4.915,8.553 3.806,0 -5.061,-8.811 0,0 z m -8.207,-3.167 0,-5.138 6.57,0 c 1.35,0 2.444,1.148 2.445,2.566 C 39.975,8.843 38.88,9.996 37.531,10 l -6.57,0 0,10e-4 z"
     inkscape:connector-curvature="0" /><path
     style="fill:#b9002d;fill-opacity:1"
     id="path18"
     d="m 25.392,3.629 c 0,1.392 -1.079,2.518 -2.402,2.518 -1.327,0 -2.399,-1.126 -2.399,-2.518 0,-1.393 1.073,-2.523 2.399,-2.523 1.323,-0.001 2.402,1.13 2.402,2.523"
     inkscape:connector-curvature="0" /><polygon
     transform="translate(0.5,0.5)"
     style="fill:#000000"
     id="polygon20"
     points="101.622,12.111 101.622,21.479 104.885,21.479 104.885,12.121 112.241,0.939 112.241,0.939 108.276,0.939 103.258,8.566 98.239,0.939 94.274,0.939 " /><path
     style="fill:#000000"
     id="path22"
     d="m 120.115,0.5 c -2.419,0 -4.388,2.057 -4.388,4.609 0,2.537 1.969,4.6 4.388,4.6 2.422,0 4.385,-2.062 4.385,-4.6 0,-2.552 -1.963,-4.609 -4.385,-4.609 m 0,8.477 c -2.036,0 -3.685,-1.736 -3.685,-3.867 0,-2.143 1.649,-3.879 3.685,-3.879 2.03,0 3.685,1.736 3.685,3.879 -10e-4,2.13 -1.655,3.867 -3.685,3.867"
     inkscape:connector-curvature="0" /><path
     style="fill:#000000"
     id="path24"
     d="m 122.083,4.096 c 0,-0.764 -0.581,-1.379 -1.301,-1.379 l -2.473,0 0,4.701 0.747,0 0,-1.951 1.249,0 0.896,1.951 0.83,0 -0.919,-2 c 0.563,-0.152 0.971,-0.685 0.971,-1.322 m -3.027,-0.592 1.726,0 c 0.31,0 0.555,0.264 0.557,0.592 -0.001,0.32 -0.247,0.58 -0.557,0.58 l -1.726,0 0,-1.172 0,0 z"
     inkscape:connector-curvature="0" /></svg>