<svg xmlns="http://www.w3.org/2000/svg" version="1.1" xml:space="preserve" viewBox="0 0 125 23" height="23" width="125" enable-background="new 0 0 124 22" y="0px" x="0px"><polygon points="46.011 0.939 46.011 21.479 59.612 21.479 59.612 18.054 49.271 18.054 49.271 12.926 59.114 12.926 59.114 9.501 49.271 9.501 49.271 4.363 59.612 4.363 59.612 4.363 59.612 0.939" transform="translate(.5 .5)"/><polygon points="69.705 0.939 72.967 0.939 72.967 18.054 82.375 18.054 82.375 21.479 69.705 21.479 69.705 21.479" transform="translate(.5 .5)"/><polygon points="85.031 0.939 88.292 0.939 88.292 18.054 97.7 18.054 97.7 21.479 85.031 21.479 85.031 21.479" transform="translate(.5 .5)"/><polygon points="63.036 0.939 66.294 0.939 66.294 21.479 63.036 21.479" transform="translate(.5 .5)"/><path d="m0.5 11.802c0-5.907 4.563-10.693 10.193-10.697 5.628 0.004 10.188 4.789 10.188 10.696 0 5.909-4.56 10.699-10.188 10.699-5.63 0-10.193-4.79-10.193-10.698m5.291-5.146c-1.254 1.326-2.029 3.137-2.029 5.146 0 2.015 0.775 3.82 2.029 5.144 1.262 1.322 2.982 2.135 4.903 2.135 1.918 0 3.641-0.812 4.899-2.135 1.256-1.323 2.029-3.129 2.029-5.144 0-2.009-0.773-3.819-2.029-5.146-1.258-1.314-2.98-2.124-4.899-2.124-1.922 0-3.641 0.81-4.903 2.124"/><path d="m39.168 13.168c2.354-0.743 4.068-3.022 4.073-5.738-0.005-3.306-2.557-5.99-5.709-5.99h-9.832v20.539h3.262v-8.553h4.546l4.915 8.553h3.806l-5.061-8.811zm-8.207-3.167v-5.138h6.57c1.35 0 2.444 1.148 2.445 2.566-0.001 1.414-1.096 2.567-2.445 2.571h-6.57v0.001z"/><path fill="#b9002d" d="m25.392 3.629c0 1.392-1.079 2.518-2.402 2.518-1.327 0-2.399-1.126-2.399-2.518 0-1.393 1.073-2.523 2.399-2.523 1.323-0.001 2.402 1.13 2.402 2.523"/><polygon points="101.62 12.111 101.62 21.479 104.88 21.479 104.88 12.121 112.24 0.939 112.24 0.939 108.28 0.939 103.26 8.566 98.239 0.939 94.274 0.939" transform="translate(.5 .5)"/><path d="m120.12 0.5c-2.419 0-4.388 2.057-4.388 4.609 0 2.537 1.969 4.6 4.388 4.6 2.422 0 4.385-2.062 4.385-4.6 0-2.552-1.963-4.609-4.385-4.609m0 8.477c-2.036 0-3.685-1.736-3.685-3.867 0-2.143 1.649-3.879 3.685-3.879 2.03 0 3.685 1.736 3.685 3.879-0.001 2.13-1.655 3.867-3.685 3.867"/><path d="m122.08 4.096c0-0.764-0.581-1.379-1.301-1.379h-2.473v4.701h0.747v-1.951h1.249l0.896 1.951h0.83l-0.919-2c0.563-0.152 0.971-0.685 0.971-1.322m-3.027-0.592h1.726c0.31 0 0.555 0.264 0.557 0.592-0.001 0.32-0.247 0.58-0.557 0.58h-1.726v-1.172z"/></svg>
