<?xml version="1.0" encoding="UTF-8" standalone="no"?>
<!-- Created with Inkscape (http://www.inkscape.org/) -->

<svg
   xmlns:dc="http://purl.org/dc/elements/1.1/"
   xmlns:cc="http://creativecommons.org/ns#"
   xmlns:rdf="http://www.w3.org/1999/02/22-rdf-syntax-ns#"
   xmlns:svg="http://www.w3.org/2000/svg"
   xmlns="http://www.w3.org/2000/svg"
   xmlns:sodipodi="http://sodipodi.sourceforge.net/DTD/sodipodi-0.dtd"
   xmlns:inkscape="http://www.inkscape.org/namespaces/inkscape"
   width="30in"
   height="20in"
   viewBox="0 0 762.00001 508.00001"
   version="1.1"
   id="svg1102"
   inkscape:version="0.92.3 (2405546, 2018-03-11)"
   sodipodi:docname="sign.svg">
  <defs
     id="defs1096" />
  <sodipodi:namedview
     id="base"
     pagecolor="#ffffff"
     bordercolor="#666666"
     borderopacity="1.0"
     inkscape:pageopacity="0.0"
     inkscape:pageshadow="2"
     inkscape:zoom="0.67382463"
     inkscape:cx="1378.0586"
     inkscape:cy="848.6388"
     inkscape:document-units="mm"
     inkscape:current-layer="layer1"
     showgrid="true"
     units="in"
     inkscape:window-width="2542"
     inkscape:window-height="2113"
     inkscape:window-x="-6"
     inkscape:window-y="0"
     inkscape:window-maximized="0"
     objecttolerance="1"
     gridtolerance="1"
     inkscape:object-nodes="false"
     inkscape:snap-others="false"
     inkscape:snap-nodes="false"
     inkscape:snap-global="false">
    <inkscape:grid
       type="xygrid"
       id="grid1104"
       units="in"
       spacingx="25.4"
       spacingy="25.4"
       empspacing="6"
       dotted="false" />
  </sodipodi:namedview>
  <metadata
     id="metadata1099">
    <rdf:RDF>
      <cc:Work
         rdf:about="">
        <dc:format>image/svg+xml</dc:format>
        <dc:type
           rdf:resource="http://purl.org/dc/dcmitype/StillImage" />
        <dc:title></dc:title>
      </cc:Work>
    </rdf:RDF>
  </metadata>
  <g
     inkscape:label="Layer 1"
     inkscape:groupmode="layer"
     id="layer1"
     transform="translate(0,211.00002)">
    <g
       aria-label="NBLUG"
       style="font-weight:800;font-stretch:condensed;font-size:272.41116333px;font-family:'Fira Sans Condensed';-inkscape-font-specification:'Fira Sans Condensed, Ultra-Bold Condensed';letter-spacing:0px;word-spacing:0px;stroke-width:0.26458329px"
       id="text1162">
      <path
         d="m 156.64434,-176.46075 h -41.4065 v 71.91655 c 0,31.599692 3.54135,55.027052 6.53787,74.095833 L 83.365735,-176.46075 H 24.524924 V 12.865008 h 41.406497 v -66.468323 c 0,-34.868629 -4.086167,-60.202865 -6.265457,-79.271645 L 97.258705,12.865008 h 59.385635 z"
         id="path33" />
      <path
         d="m 272.51698,-87.3823 c 17.1619,-4.903401 31.87211,-17.43431 31.87211,-40.31685 0,-33.77899 -28.60318,-48.7616 -74.91307,-48.7616 H 179.35236 V 12.865008 h 56.66152 c 43.31338,0 75.4579,-14.1653801 75.4579,-55.299466 0,-28.875583 -18.79637,-40.316852 -38.9548,-44.947842 z m -38.68238,-55.29947 c 16.34467,0 22.0653,7.35511 22.0653,19.88602 0,13.62056 -5.17581,21.52048 -21.24807,21.52048 h -7.08269 v -41.4065 z m 2.4517,120.950561 h -8.71716 v -48.216776 h 10.07921 c 17.1619,0 24.51701,8.172335 24.51701,24.517004 0,17.706726 -9.80681,23.699772 -25.87906,23.699772 z"
         id="path35" />
      <path
         d="M 374.41577,-176.46075 H 326.199 V 12.865008 h 104.60588 l 4.9034,-37.59274 h -61.29251 z"
         id="path37" />
      <path
         d="m 580.96304,-176.46075 h -48.21677 v 129.122891 c 0,20.430838 -5.17581,29.692817 -19.34119,29.692817 -14.16538,0 -19.3412,-9.261979 -19.3412,-29.692817 V -176.46075 h -48.21677 v 131.029769 c 0,37.3203298 21.52048,63.19939 67.55797,63.19939 46.03748,0 67.55796,-27.785938 67.55796,-63.19939 z"
         id="path39" />
      <path
         d="m 678.63518,-181.36415 c -46.58231,0 -82.26817,34.59622 -82.26817,99.430074 0,64.561445 23.97218,99.702485 78.72682,99.702485 20.15843,0 43.58579,-7.627512 61.0201,-20.430837 v -93.981851 h -67.01314 l 4.63099,33.234162 h 17.1619 v 40.589263 c -5.17581,3.813756 -11.16886,5.720634 -17.43431,5.720634 -19.06879,0 -27.51353,-15.527436 -27.51353,-64.561445 0,-46.854725 12.80332,-65.106265 35.41345,-65.106265 12.2585,0 20.97566,4.35858 32.14452,13.07573 l 22.88253,-23.97218 c -13.89296,-13.62056 -32.96175,-23.69977 -57.75116,-23.69977 z"
         id="path41" />
    </g>
    <g
       id="g31"
       transform="translate(11.387112)">
      <path
         id="path1055"
         d="m 121.97354,44.715995 c -6.27093,0 -7.32256,0.07788 -11.4902,1.168496 -5.14138,1.363258 -8.14053,3.077042 -11.646018,6.621482 -1.791689,1.752751 -2.687533,2.882295 -3.544425,4.323442 -2.142245,3.700234 -3.54444,7.90682 -4.401347,13.59349 -0.467399,2.765452 -0.506336,3.778139 -0.467399,10.63332 0,7.205722 0.856907,29.173445 1.363258,35.755975 0.350541,4.36238 0.194747,4.82978 -3.46655,9.93222 -1.285338,1.79169 -3.077027,4.40133 -3.972886,5.80353 -2.453834,3.77814 -5.92037,8.64687 -8.763712,12.38605 -5.258239,6.77728 -6.582529,9.27007 -9.89327,18.26749 -3.193884,8.80267 -5.141382,13.16505 -9.854318,22.31827 -2.414881,4.59608 -3.038089,6.54357 -3.154931,9.81536 -0.155795,2.80439 0.233699,6.69937 0.662145,7.40047 0.350556,0.4674 0.779002,0.58426 1.635894,0.35056 -0.116886,0.11688 -0.194747,0.19474 -0.272651,0.2337 -1.363243,0.89584 -2.921233,2.80439 -3.894982,5.21928 -0.03901,0.039 -0.03901,0.11689 -0.07787,0.1558 -0.350556,0.5453 -0.74005,1.4801 -1.207448,2.92123 -1.402195,3.97289 -2.570691,5.72564 -4.673984,6.85518 -1.791688,0.97375 -3.38863,1.20745 -8.062614,1.20745 -4.829793,0 -5.881432,0.2337 -7.322579,1.4801 -2.570691,2.18118 -2.960185,6.50462 -1.207448,12.5029 1.596942,5.41403 1.519052,7.90682 -0.545303,13.983 -1.129544,3.34969 -1.285338,4.05079 -1.285338,5.49193 0,1.09059 0.116886,1.90855 0.350541,2.41489 0.506351,1.05165 2.103293,2.33699 3.661297,2.99915 1.752736,0.66214 10.555415,2.84332 16.865293,4.08973 9.776413,1.98645 13.281901,3.03808 22.357216,6.66043 8.062615,3.19388 11.490212,4.36238 14.216698,4.79082 1.285338,0.19475 3.933934,-0.039 5.141382,-0.50635 1.441147,-0.50635 2.80439,-1.44114 5.803527,-3.97288 5.297182,-4.44029 8.179472,-5.84248 14.099862,-6.77728 2.22013,-0.35054 4.24554,-0.38949 21.18872,-0.38949 10.28276,0 19.35808,0.0779 20.17603,0.19475 1.90854,0.23369 2.64858,0.85689 4.24554,3.66128 2.45383,4.40134 5.45297,6.34883 10.90596,7.16678 2.57069,0.3895 6.97201,0.42845 8.99742,0.11689 4.44029,-0.74005 6.66041,-2.06434 11.68495,-7.08887 5.84248,-5.88143 11.29545,-9.58166 18.9686,-12.93136 3.89498,-1.7138 5.6477,-2.68754 10.24381,-5.80352 5.64772,-3.81709 6.73831,-5.02454 6.73831,-7.51733 0,-2.60964 -1.40219,-4.24554 -6.58253,-7.67312 -4.94663,-3.27179 -7.16677,-5.25824 -9.23111,-8.29633 -1.44113,-2.14224 -1.94749,-3.77814 -2.14223,-6.97202 -0.0779,-1.4801 -0.2337,-2.49279 -0.42845,-3.11599 -0.19476,-2.22014 -1.0906,-4.75188 -2.68755,-5.56983 -2.22013,-1.1685 -2.99913,-0.81794 -3.73918,-0.35054 2.49278,-2.80439 3.31074,-4.1287 4.12868,-6.54358 1.44114,-4.28449 1.12956,-9.07532 -1.36325,-21.53928 -2.88228,-14.48935 -7.78996,-24.85002 -17.91693,-37.85926 -6.42673,-8.29633 -9.03638,-12.42501 -15.3073,-24.18788 -3.11598,-5.88141 -4.01184,-7.90682 -4.75187,-11.06175 -1.09061,-4.55714 -1.59696,-8.646867 -2.4149,-20.292874 -0.779,-10.867019 -1.32429,-15.346256 -2.33699,-19.124395 -2.68755,-10.282764 -10.75016,-18.072726 -22.00668,-21.305577 -4.79084,-1.363243 -6.85518,-1.635895 -13.32085,-1.635895 z"
         style="fill:white;stroke-width:0.26458332"
         inkscape:connector-curvature="0" />
      <g
         id="g1063"
         transform="matrix(0.38949862,0,0,0.38949862,-70.828281,-69.952394)"
         style="fill:#f8bf11">
        <path
           id="path1057"
           transform="matrix(0.55569,0,0,0.55569,249.6684,292.4824)"
           d="m 552,300.4 c 0,25.1 -29.9,30.4 -44.4,39.4 -13.5,12.5 -91.2,47.8 -111.8,47.8 -33.1,-7 -73.4,-56.4 -78.6,-89.2 0,-19.1 24.3,-34.4 37.9,-46.9 13.5,-12.5 29.1,-24.3 55.7,-19.3 20.6,0 52.8,9.8 66.3,22.3 27,9 74.9,14.8 74.9,45.9 z"
           inkscape:connector-curvature="0" />
        <path
           id="path1059"
           transform="matrix(0.55569,0,0,0.55569,249.6684,292.4824)"
           d="m 7.597,971.1 c 30.75,14 102.4,31.9 127.6,34.9 16.9,7 128.5,33 154.2,33 38.1,-27 44.4,-67.9 33.7,-109.3 -47.5,-76.7 -84.2,-177.2 -173,-211.8 -8.9,4.4 -16.2,16.3 -19.4,18.3 -6.4,4.1 -13.5,13 -18,24.1 -4.7,11.6 -9,25.8 -14.24,46.5 -10.26,20.6 -52.15,2 -80.84,17 -10.46,31.7 7.39,109.9 -10.02,147.3 z"
           inkscape:connector-curvature="0" />
        <path
           id="path1061"
           transform="matrix(0.55569,0,0,0.55569,249.6684,292.4824)"
           d="m 834.2,853.6 c 19.2,15.7 49.3,27.4 62.9,53.5 -25.9,30.9 -48.2,41.8 -81,57.4 -45,21.4 -73.2,41.5 -93.8,55.5 -20.6,18 -68.4,29 -90.1,26 -13.7,-9 -29.1,-118.3 -24.1,-154 0,-19 -23.3,-95.1 14,-141.5 36.1,-6.9 67.1,26.1 90,48.6 18.9,-12.7 48.8,-32.2 71.4,-37.1 7.4,-1.7 7.7,-9.4 23.2,-1.3 7.4,3.9 11.7,16.1 12.5,26.5 1.3,16.8 3,52.4 15,66.4 z"
           inkscape:connector-curvature="0" />
      </g>
      <path
         style="stroke-width:0.21644048"
         id="path1065"
         d="m 83.882166,274.04534 c -2.72715,-0.43288 -6.168554,-1.51509 -14.22014,-4.76169 -9.090501,-3.67949 -12.575193,-4.54525 -22.358303,-6.70966 -6.298418,-1.0822 -15.131354,-3.35483 -16.856385,-4.04744 -1.560536,-0.62767 -3.181675,-1.92632 -3.677324,-2.98687 -0.231158,-0.47617 -0.352798,-1.32029 -0.352798,-2.40249 0,-1.4718 0.156876,-2.12112 1.290418,-5.47595 2.059648,-6.10362 2.159211,-8.59269 0.557767,-14.0037 -1.773513,-5.9954 -1.358597,-10.32421 1.1967,-12.51026 1.443658,-1.23371 2.495559,-1.45015 7.315688,-1.45015 4.683773,0 6.265953,-0.23808 8.079724,-1.23371 2.088651,-1.14713 3.263922,-2.87866 4.649142,-6.86116 0.887406,-2.57565 1.471795,-3.59292 2.03454,-3.59292 0.454525,0 0.844118,1.12549 0.844118,2.48907 0,1.21207 -1.363575,6.32006 -2.03454,7.64035 -0.714254,1.42851 -1.688236,2.53235 -2.811562,3.18167 -2.095144,1.23372 -6.13176,1.55838 -10.560132,0.88741 -2.828877,-0.45452 -4.452181,-0.3463 -5.534383,0.30302 -1.60166,0.97398 -1.863553,3.16003 -0.701267,5.86553 2.250981,5.21622 2.681697,6.34171 3.157866,8.09488 0.56491,2.09947 0.655815,3.93922 0.300853,6.12526 -0.352798,2.16441 -0.973983,3.52798 -2.811562,6.10363 -0.94801,1.34193 -1.815936,2.77043 -1.93065,3.20332 -0.32466,1.16877 0.153673,2.05618 1.443658,2.72715 1.095189,0.5411 16.713535,4.58853 27.747671,7.0776 3.398116,0.86576 9.588314,2.38085 13.743971,3.46305 4.177302,1.0822 8.506112,1.94796 9.631602,2.1644 3.484692,0.43288 6.709655,0 8.938992,-1.29864 3.095099,-1.94796 5.259504,-6.42828 5.519233,-11.6445 0.173152,-3.4414 -0.584389,-6.5365 -2.597286,-10.54065 -1.536727,-3.07346 -2.294269,-4.26388 -9.588314,-15.2807 -12.878209,-19.39307 -18.462373,-25.86464 -23.224064,-26.86026 -1.536728,-0.30302 -2.553998,-0.12987 -4.610183,0.80083 -1.969608,0.8874 -2.640574,0.93069 -3.116743,0.21644 -0.454525,-0.69261 -0.822474,-4.5669 -0.692609,-7.38062 0.151508,-3.26826 0.779185,-5.21622 3.160031,-9.84805 4.718403,-9.13379 6.644723,-13.50588 9.869686,-22.29337 3.31154,-9.00392 4.653471,-11.49299 9.869687,-18.28922 2.857014,-3.70113 6.320062,-8.59269 8.765839,-12.35875 0.930695,-1.40686 2.727151,-4.02579 4.004149,-5.82225 3.636201,-5.108 3.809353,-5.58416 3.463048,-9.93462 -0.519457,-6.55814 -1.385219,-28.548499 -1.385219,-35.734323 -0.02164,-6.839519 0.02164,-7.878434 0.454525,-10.648872 0.887406,-5.662083 2.272625,-9.91081 4.43703,-13.590298 0.822474,-1.437165 1.753168,-2.573478 3.506336,-4.343961 3.506334,-3.536638 6.536504,-5.233531 11.666144,-6.575462 4.1773,-1.093458 5.23786,-1.202111 11.49299,-1.196483 6.44993,0.0056 8.50611,0.260811 13.31109,1.641268 11.2549,3.233621 19.32813,11.029807 22.03364,21.29558 0.99563,3.787708 1.53673,8.289671 2.31591,19.154983 0.82248,11.622854 1.32029,15.713578 2.42414,20.302118 0.7359,3.11674 1.6233,5.17293 4.74004,11.03847 6.27678,11.77436 8.87406,15.88673 15.30235,24.15475 10.12941,13.02972 15.02097,23.37558 17.92127,37.87709 2.48906,12.46697 2.79208,17.25031 1.36357,21.55747 -0.86576,2.59729 -1.70988,3.89593 -4.67511,7.16418 -6.23349,6.90445 -13.18123,11.23326 -17.94292,11.23326 -4.32881,0 -8.28967,-2.94359 -11.12504,-8.28967 -1.32028,-2.94359 -1.14713,-5.30279 -4.93484,-4.45867 -1.83975,0.49781 -3.35483,2.72715 -3.80935,5.60581 -0.34631,2.05618 -0.28138,9.93462 0.0866,11.90422 0.15151,0.88741 0.67097,3.52798 1.10385,5.8439 0.77918,4.00415 0.82247,4.43703 0.82247,8.5494 0,3.78771 -0.0866,4.93484 -0.71425,9.0905 -0.58439,3.89593 -0.69261,5.23786 -0.62768,7.35897 0.0866,2.46743 0.12987,2.70551 0.86576,4.24224 0.88741,1.94796 2.83537,4.11237 4.52361,5.19457 3.72278,2.38085 8.91735,2.59729 13.28945,0.43288 1.23371,-0.64932 3.03016,-1.94796 6.06033,-4.32881 4.9132,-3.9825 8.57104,-6.51486 11.34148,-7.92172 1.06056,-0.51946 3.61456,-1.49344 5.67074,-2.16441 8.52776,-2.74879 12.42369,-4.39374 14.58809,-6.19019 2.57564,-2.09948 3.80935,-4.3721 3.35483,-6.08198 -0.58439,-2.12112 -3.03017,-3.6362 -8.02994,-4.93484 -3.76607,-0.99563 -4.67512,-1.45016 -6.21185,-3.13839 -1.36357,-1.49344 -2.42413,-3.6362 -3.20331,-6.49322 -0.75755,-2.79208 -0.86577,-7.31568 -0.21645,-9.0905 0.45453,-1.25535 0.90905,-1.83974 1.42851,-1.83974 0.60604,0 0.90905,1.06056 1.0822,3.89593 0.21645,3.16003 0.71426,4.82662 2.16441,6.94774 2.05618,3.05181 4.24223,5.02142 9.19872,8.31131 5.17293,3.41976 6.60144,5.06471 6.60144,7.68364 0,2.48907 -1.10385,3.70113 -6.7313,7.48884 -4.61019,3.11674 -6.34171,4.11237 -10.23764,5.80061 -7.68364,3.35482 -13.13794,7.0776 -19.00347,12.92149 -5.02142,4.97813 -7.20747,6.49322 -11.68779,7.14254 -2.0129,0.21644 -6.40664,0.21644 -8.98228,-0.21644 -5.4543,-0.64932 -8.41954,-2.59729 -10.9086,-7.14254 -1.58002,-2.81372 -2.31591,-3.46305 -4.22059,-3.67949 -0.82248,0 -9.91298,-0.21644 -20.21554,-0.21644 -16.92565,0 -18.96019,0.21644 -21.14624,0.43288 -5.93047,1.08221 -8.85241,2.38085 -14.133563,6.70966 -2.986879,2.59729 -4.350454,3.46305 -5.800605,4.11237 -1.190423,0.43288 -3.852641,0.64932 -5.12964,0.43288 z M 103.4051,260.08493 c 0.47617,-0.41124 1.19042,-1.36358 1.60166,-2.12112 0.64932,-1.21207 0.7359,-1.58002 0.80083,-3.4414 0.15151,-3.41976 -0.58439,-5.34608 -3.00853,-7.90008 -1.66659,-1.75317 -1.90467,-2.51071 -0.95233,-2.94359 0.8874,-0.3896 2.01289,0.10822 4.02579,1.79645 3.80935,3.22497 6.06033,3.76607 14.37165,3.59292 8.93899,-0.21645 13.8089,-1.14714 18.7221,-3.61456 3.18168,-1.60166 5.28115,-3.41976 7.94337,-6.94774 1.88303,-2.46742 2.72715,-3.31154 3.78771,-3.74442 1.75316,-0.7359 2.68386,0.69261 2.64057,4.09072 -0.0216,1.58002 -0.1948,2.57565 -0.90905,5.21622 -1.94797,7.03432 -2.554,10.99518 -2.0129,13.00807 0.32466,1.16878 1.34193,2.05619 2.27263,1.96961 0.64932,-0.0649 0.67096,-0.10822 0.84412,-1.36357 0.0866,-0.71426 0.45452,-3.13839 0.82247,-5.41102 0.3463,-2.25098 0.77919,-5.17292 0.97398,-6.49321 0.45453,-3.41976 0.80083,-14.02534 0.82248,-25.53998 0.0216,-9.93462 0.0216,-9.95626 0.5411,-11.47134 0.41123,-1.16878 0.77918,-1.75317 1.6233,-2.59729 1.32029,-1.29864 2.554,-1.77481 5.34608,-1.96961 l 1.86139,-0.15151 0.25973,-1.32028 c 0.62767,-3.00853 2.42413,-4.71841 5.97376,-5.67074 1.14713,-0.30302 2.29426,-0.41124 4.76169,-0.41124 3.57126,0 4.56689,0.21644 7.79185,1.77481 1.45015,0.69261 2.70551,0.93069 2.70551,0.51946 0,-0.32466 -1.75317,-1.96961 -3.16003,-2.96524 -0.7359,-0.5411 -2.0129,-1.23371 -2.81373,-1.55837 -1.10384,-0.45452 -1.51508,-0.7359 -1.55837,-1.06056 -0.0433,-0.25973 0.28137,-1.70988 0.71425,-3.2466 1.25536,-4.54525 1.6666,-7.42391 1.68824,-11.75272 0.0433,-7.12089 -1.21207,-11.8393 -5.34608,-19.82595 -3.831,-7.40227 -7.87843,-12.83492 -11.08175,-14.86946 -0.9307,-0.56275 -2.03454,-0.95234 -2.03454,-0.71426 0,0.0866 0.77918,1.23371 1.70988,2.57564 4.41538,6.25514 9.00392,14.24179 10.95188,19.1117 1.58002,3.89593 2.77044,9.17708 3.13839,13.98206 0.62768,7.87843 -1.51508,14.60973 -5.19457,16.25468 -0.7359,0.3463 -1.55837,0.47617 -3.35483,0.51945 -2.85701,0.10822 -3.2466,-0.0433 -4.00415,-1.55837 l -0.5411,-1.0822 -0.12986,-8.65762 c -0.23809,-14.7396 -0.9307,-17.25031 -8.65762,-31.21072 -2.38085,-4.28552 -2.85702,-5.41101 -3.87429,-9.30694 -2.07783,-8.0083 -4.09072,-12.70506 -7.25075,-16.94729 -4.82663,-6.44993 -5.4543,-9.13379 -3.52798,-15.0859 1.23371,-3.87429 1.21206,-5.86554 -0.0866,-7.18583 -0.95234,-0.97398 -1.68823,-1.32028 -6.03869,-2.7055 -6.60143,-2.099475 -9.65324,-3.982507 -10.49736,-6.471573 -0.84412,-2.445778 -0.23809,-6.428283 1.277,-8.397891 1.0822,-1.428507 2.46742,-2.034541 4.58853,-2.034541 1.40687,0.02164 1.96961,0.129865 2.9436,0.562746 1.49343,0.714253 2.68386,1.731524 3.28989,2.878658 0.64932,1.233711 0.62768,4.155658 -0.0433,6.298418 -1.10384,3.484692 -1.06056,3.116743 -0.28137,3.809353 1.40686,1.255355 3.6362,1.363575 4.61018,0.194796 0.84412,-0.995626 1.10385,-2.012896 1.21207,-4.869911 0.12986,-3.116743 -0.1948,-5.194571 -1.4718,-9.112144 -1.75316,-5.367724 -3.50633,-6.926096 -8.80912,-7.791858 -3.96086,-0.649321 -6.12527,-0.129864 -8.11652,1.92632 -3.11675,3.246608 -4.67512,8.419536 -4.04744,13.614107 0.34631,2.878659 0.28137,3.008523 -1.34193,2.489066 -1.45015,-0.454525 -4.63183,-0.822474 -6.47157,-0.757542 -1.96961,0.08658 -2.14276,-0.08658 -2.14276,-2.294269 -0.0216,-8.98228 -2.72715,-13.873835 -7.68364,-13.830547 -3.4414,0 -6.233485,2.61893 -7.2724,6.774587 -0.411237,1.623304 -0.324661,6.276774 0.129865,8.98228 0.930694,5.324436 2.94359,7.986655 4.523605,5.908826 0.64932,-0.887406 1.21207,-2.012897 1.21207,-2.380846 0,-0.151508 -0.49782,-0.497813 -1.0822,-0.779185 -0.64933,-0.303017 -1.233716,-0.779186 -1.493444,-1.212067 -1.233711,-1.969609 -1.839744,-5.497589 -1.320287,-7.380621 0.670965,-2.380845 3.939221,-3.852641 6.190201,-2.792082 1.90467,0.90905 3.93921,5.107995 3.72277,7.748569 -0.17315,2.099473 -0.56274,2.748795 -2.46742,4.155658 -0.95234,0.692609 -2.48906,1.947964 -3.4414,2.792082 -0.95234,0.844121 -2.12112,1.818101 -2.597288,2.164401 -2.424134,1.75317 -3.787709,3.80936 -3.787709,5.75732 0,1.277 0.519457,1.96961 2.142761,2.77044 1.276999,0.64932 2.424136,1.77481 3.636196,3.54962 1.62331,2.33756 3.54963,3.07346 7.96501,3.05181 5.38937,-0.0216 10.216,-1.16877 19.26321,-4.54525 4.9132,-1.83974 6.27677,-2.42413 6.55814,-2.85701 0.80083,-1.16878 1.73153,-1.99125 2.29427,-1.99125 0.75755,0 1.42851,0.71425 1.42851,1.49344 0,1.32028 -2.03454,2.40249 -9.0905,4.80498 -2.07783,0.71425 -5.30279,2.01289 -7.14254,2.87865 -3.72277,1.77482 -4.76169,2.14276 -7.20746,2.61893 -2.0129,0.3896 -6.66637,0.43288 -9.22037,0.0866 -2.07783,-0.28137 -3.33318,-0.12986 -3.22496,0.41124 0.10822,0.56274 4.9132,4.30716 6.01704,4.7184 1.55838,0.5411 4.63183,0.64932 6.62308,0.1948 3.00853,-0.64933 12.51026,-4.74005 17.22867,-7.38062 1.58001,-0.88741 2.46742,-1.25536 3.03016,-1.25536 0.95234,-0.0216 1.68824,0.58439 1.68824,1.34193 0,0.82248 -1.60166,2.22934 -3.35483,2.96524 -3.0951,1.25535 -3.74442,1.60166 -6.81787,3.54962 -4.19895,2.68386 -6.03869,4.02579 -8.80913,6.44993 -2.96524,2.57564 -3.80936,2.92194 -7.09925,2.96523 -2.61893,0.0217 -3.41976,-0.23808 -5.12964,-1.70988 -1.34193,-1.14713 -4.54525,-5.12964 -5.4543,-6.79623 -0.95234,-1.73152 -3.073456,-4.13401 -3.636201,-4.13401 -0.367949,0 -0.411237,0.0866 -1.038914,2.81372 -0.432881,1.94797 -2.034541,5.62746 -4.631827,10.71381 -3.116743,6.12526 -3.268251,6.66636 -3.268251,13.09465 0,5.36772 0.129864,4.9132 -2.489066,8.5494 -3.203319,4.50196 -8.18145,16.25468 -9.371873,22.18515 -0.90905,4.43703 -1.536727,11.9908 -1.363575,16.23303 0.129864,3.37648 -0.04329,4.3721 -0.844118,4.86991 -0.822474,0.51946 -1.796456,-0.0216 -3.809353,-2.01289 -3.160031,-3.18168 -4.177301,-5.82225 -4.155657,-10.86531 0.02164,-3.20332 0.303017,-5.67075 0.930694,-8.05159 0.541101,-2.03454 0.562745,-2.61893 0.06493,-2.51071 -0.519457,0.0866 -1.688236,2.48907 -2.250981,4.63183 -0.346305,1.27699 -0.476169,2.59728 -0.562745,5.28114 -0.08658,3.2899 -0.06493,3.76607 0.454525,6.06034 0.649321,2.87866 1.883032,5.56252 3.592912,7.8135 2.61893,3.46305 15.886732,15.23741 24.717504,21.96871 2.121117,1.60166 4.480318,3.61456 5.259504,4.45867 4.675112,5.06471 3.766062,9.69654 -2.61893,13.26781 -0.995626,0.56274 -1.8181,1.06055 -1.8181,1.10384 0,0.0433 0.822474,1.19042 1.8181,2.51071 3.657844,4.93484 5.778962,8.5494 6.514862,11.08175 0.49781,1.6666 0.47617,4.06909 -0.0649,5.60581 -0.21644,0.69261 -0.34631,1.25536 -0.25973,1.25536 0.0866,0 0.5411,-0.43288 1.01727,-0.75754 z m 3.74442,-161.161593 c -0.67097,-1.276998 0.58439,-2.380845 2.72715,-2.380845 0.75754,0 1.42851,0.08658 1.49344,0.216441 0.15151,0.259728 -0.58439,0.649321 -1.23371,0.649321 -0.3896,0 -0.60604,0.21644 -0.9307,0.930694 -0.3463,0.757542 -0.5411,0.930694 -1.12549,0.973982 -0.51945,0.04329 -0.73589,-0.04329 -0.93069,-0.389593 z m 12.83492,-0.930694 c -1.25536,-0.454525 -2.22934,-1.082202 -1.99125,-1.320287 0.0649,-0.06493 0.80083,-0.173152 1.6233,-0.259728 1.94797,-0.173153 2.68386,0.10822 2.68386,0.973982 0,0.432881 -0.15151,0.735898 -0.41123,0.887406 -0.23809,0.10822 -0.45453,0.21644 -0.49782,0.194796 -0.0216,0 -0.67096,-0.21644 -1.40686,-0.476169 z M 74.92153,158.66091 c 2.077829,-2.14276 2.662218,-3.22496 2.532354,-4.76169 -0.06493,-1.06056 -0.47617,-1.42851 -1.341931,-1.21206 -0.627678,0.1515 -0.973983,0.80082 -1.536728,2.77043 -0.238085,0.95234 -0.627677,1.58002 -1.515083,2.57565 -1.190423,1.34193 -1.406864,1.83974 -0.930695,2.31591 0.497814,0.49781 0.909051,0.25973 2.792083,-1.68824 z m 83.24301,-36.53515 c 0.45453,-0.28137 1.36358,-2.51071 1.36358,-3.35483 0,-0.67097 -0.12987,-0.97398 -0.67097,-1.47179 -0.36795,-0.34631 -0.75754,-0.62768 -0.86576,-0.62768 -0.10822,0 -0.95234,-0.34631 -1.88303,-0.80083 -1.12549,-0.5411 -2.12112,-1.21207 -3.0951,-2.16441 -0.77919,-0.73589 -1.53673,-1.36357 -1.66659,-1.36357 -0.12987,0 -0.30302,0.25973 -0.3896,0.56274 -0.23808,0.99563 0.10822,2.53236 1.01727,4.35046 0.77919,1.6233 1.06056,1.94796 2.85702,3.41976 1.92632,1.58001 2.64057,1.88303 3.33318,1.45015 z M 106.08896,93.144376 c 0.25973,-0.670965 0.1948,-1.190422 -0.47617,-3.376471 -0.28137,-0.952338 -0.69261,-1.753168 -1.12549,-2.229337 -0.62768,-0.670966 -0.7359,-0.714254 -1.23371,-0.454525 -0.71425,0.389592 -0.64932,1.255354 0.1948,2.207693 0.62767,0.714253 1.16878,2.077828 1.4285,3.6362 0.17316,0.995626 0.86577,1.12549 1.21207,0.21644 z m 30.49647,-0.606033 c 0.47616,-0.562745 0.12986,-3.246607 -0.51946,-4.242234 -0.67097,-1.01727 -2.22934,-1.947964 -3.46305,-2.077828 -0.82247,-0.108221 -0.97398,-0.04329 -1.21207,0.367948 -0.30301,0.562746 -0.1515,0.735898 0.90905,1.060559 1.34193,0.432881 2.57565,2.272625 2.90031,4.307166 0.12986,0.757541 0.23808,0.90905 0.62767,0.90905 0.28138,0 0.60604,-0.151509 0.75755,-0.324661 z m 1.45015,-29.154534 c 1.55837,-1.075709 1.66659,-1.123326 3.16003,-1.162285 1.90467,-0.04978 2.31591,-0.209948 2.31591,-0.880913 0,-1.045408 -3.59291,-4.231412 -5.10799,-4.512784 -1.51509,-0.285702 -2.05619,0.536772 -2.35921,3.61672 -0.12986,1.151464 -0.28137,1.631961 -0.77918,2.248817 -0.67097,0.850611 -0.77919,1.350588 -0.34631,1.779141 0.43288,0.443703 1.36358,0.116877 3.11675,-1.088696 z"
         inkscape:connector-curvature="0" />
    </g>
    <path
       style="color:black;solid-color:black;fill:#010101;stroke-width:1.05833328;stroke-linecap:round;stroke-linejoin:round"
       d="m 659.07987,68.399977 -6.30608,50.800003 -361.43287,0 -9.90689,76.2 361.8809,0 -6.30608,50.79999 99.93551,-88.89999 z"
       id="rect1214"
       inkscape:connector-curvature="0"
       sodipodi:nodetypes="cccccccc" />
  </g>
</svg>
